<svg xmlns="http://www.w3.org/2000/svg" width="66" height="23" viewBox="0 0 66 23">
  <g id="Logos" transform="translate(-25.058 -696.223)">
    <g id="Pikir_logo" data-name="Pikir logo" transform="translate(854.758 772.523)">
      <path id="Path_1" d="M-829.676-68h7.445c5.1,0,8.157,2.974,8.157,7.331,0,4.871-3.841,7.377-8.631,7.377h-2.3v6.3H-829.7V-68Zm7.137,10.61c2.347,0,3.723-1.382,3.723-3.255,0-2.061-1.47-3.185-3.818-3.185h-2.347v6.417h2.442Z" transform="translate(0 -6.332)" fill="#fff"/>
      <path id="Path_2" d="M-750.6-71.9h4.624v4.054H-750.6Zm0,5.835h4.624v16.1H-750.6Z" transform="translate(-60.326 -3.357)" fill="#fff"/>
      <path id="Path_3" d="M-711.2-47.1h4.624v5.952l4.529-5.952h5.548l-5.311,6.426s5.169,2.063,5.169,9.911h-4.481c-.356-7.682-5.43-7.825-5.43-7.825v7.825h-4.624V-47.1Z" transform="translate(-90.37 -22.537)" fill="#fff"/>
      <path id="Path_4" d="M-634.3-47.1h4.624v16.337H-634.3Z" transform="translate(-149.024 -22.537)" fill="#fff"/>
      <path id="Path_5" d="M-596.9-47.1h4.624v3.3c.948-2.253,2.893-3.7,6.117-2.988l-.9,4.244s-5.216-.759-5.216,4.41v7.374H-596.9Z" transform="translate(-177.541 -22.537)" fill="#fff"/>
      <circle id="Ellipse_1" cx="2.324" cy="2.324" r="2.324" transform="translate(-783.324 -76.3)" fill="#fff"/>
    </g>
  </g>
</svg>
